<svg width="17" height="14" viewBox="0 0 17 14" fill="none" xmlns="http://www.w3.org/2000/svg">
<path d="M16.0383 7.66327L10.4133 13.2883C10.2372 13.4644 9.99829 13.5633 9.74922 13.5633C9.50015 13.5633 9.26128 13.4644 9.08516 13.2883C8.90904 13.1121 8.81009 12.8733 8.81009 12.6242C8.81009 12.3751 8.90904 12.1363 9.08516 11.9601L13.1094 7.93748H1.625C1.37636 7.93748 1.1379 7.83871 0.962087 7.6629C0.786272 7.48708 0.6875 7.24862 0.6875 6.99998C0.6875 6.75134 0.786272 6.51289 0.962087 6.33707C1.1379 6.16126 1.37636 6.06248 1.625 6.06248H13.1094L9.08672 2.03748C8.9106 1.86136 8.81166 1.62249 8.81166 1.37342C8.81166 1.12435 8.9106 0.88548 9.08672 0.709359C9.26284 0.533239 9.50171 0.434296 9.75078 0.434296C9.99985 0.434296 10.2387 0.533239 10.4148 0.709359L16.0398 6.33436C16.1273 6.42157 16.1966 6.5252 16.2438 6.63928C16.2911 6.75336 16.3153 6.87566 16.3152 6.99914C16.315 7.12262 16.2905 7.24485 16.243 7.35883C16.1955 7.4728 16.1259 7.57626 16.0383 7.66327Z" fill="white"/>
</svg>
