<svg width="20" height="16" viewBox="0 0 20 16" fill="none" xmlns="http://www.w3.org/2000/svg">
<path d="M19.3281 8C19.3281 8.28594 19.2145 8.56016 19.0123 8.76235C18.8102 8.96454 18.5359 9.07812 18.25 9.07812H1.75C1.46406 9.07812 1.18984 8.96454 0.987651 8.76235C0.785463 8.56016 0.671875 8.28594 0.671875 8C0.671875 7.71406 0.785463 7.43984 0.987651 7.23765C1.18984 7.03546 1.46406 6.92188 1.75 6.92188H18.25C18.5359 6.92188 18.8102 7.03546 19.0123 7.23765C19.2145 7.43984 19.3281 7.71406 19.3281 8ZM18.25 3.07812H1.75C1.46406 3.07812 1.18984 2.96454 0.987651 2.76235C0.785463 2.56016 0.671875 2.28594 0.671875 2C0.671875 1.71406 0.785463 1.43984 0.987651 1.23765C1.18984 1.03546 1.46406 0.921875 1.75 0.921875H18.25C18.5359 0.921875 18.8102 1.03546 19.0123 1.23765C19.2145 1.43984 19.3281 1.71406 19.3281 2C19.3281 2.28594 19.2145 2.56016 19.0123 2.76235C18.8102 2.96454 18.5359 3.07812 18.25 3.07812ZM1.75 12.9219H18.25C18.5359 12.9219 18.8102 13.0355 19.0123 13.2377C19.2145 13.4398 19.3281 13.7141 19.3281 14C19.3281 14.2859 19.2145 14.5602 19.0123 14.7623C18.8102 14.9645 18.5359 15.0781 18.25 15.0781H1.75C1.46406 15.0781 1.18984 14.9645 0.987651 14.7623C0.785463 14.5602 0.671875 14.2859 0.671875 14C0.671875 13.7141 0.785463 13.4398 0.98765 13.2377C1.18984 13.0355 1.46406 12.9219 1.75 12.9219Z" fill="#475569" stroke="#475569" stroke-width="0.09375"/>
</svg>
