<svg width="12" height="12" viewBox="0 0 12 12" fill="none" xmlns="http://www.w3.org/2000/svg">
<path d="M11.4375 6.00001V9.00001C11.4375 9.14919 11.3782 9.29227 11.2727 9.39776C11.1672 9.50324 11.0242 9.56251 10.875 9.56251H7.87498C7.7258 9.56251 7.58272 9.50324 7.47723 9.39776C7.37174 9.29227 7.31248 9.14919 7.31248 9.00001C7.31248 8.85082 7.37174 8.70775 7.47723 8.60226C7.58272 8.49677 7.7258 8.43751 7.87498 8.43751H9.5156L6.37498 5.29688L4.89795 6.77438C4.84569 6.82682 4.78359 6.86843 4.71522 6.89682C4.64685 6.92521 4.57354 6.93983 4.49951 6.93983C4.42548 6.93983 4.35217 6.92521 4.2838 6.89682C4.21543 6.86843 4.15333 6.82682 4.10107 6.77438L0.726073 3.39938C0.620401 3.29371 0.561035 3.15039 0.561035 3.00095C0.561035 2.92695 0.57561 2.85368 0.603927 2.78531C0.632244 2.71695 0.67375 2.65483 0.726073 2.60251C0.778397 2.55018 0.840514 2.50868 0.908878 2.48036C0.977242 2.45204 1.05051 2.43747 1.12451 2.43747C1.27395 2.43747 1.41728 2.49684 1.52295 2.60251L4.49998 5.57813L5.97701 4.10063C6.02927 4.04819 6.09136 4.00658 6.15974 3.97819C6.22811 3.9498 6.30142 3.93519 6.37545 3.93519C6.44948 3.93519 6.52279 3.9498 6.59116 3.97819C6.65953 4.00658 6.72163 4.04819 6.77389 4.10063L10.3125 7.64063V6.00001C10.3125 5.85082 10.3717 5.70775 10.4772 5.60226C10.5827 5.49677 10.7258 5.43751 10.875 5.43751C11.0242 5.43751 11.1672 5.49677 11.2727 5.60226C11.3782 5.70775 11.4375 5.85082 11.4375 6.00001Z" fill="white"/>
</svg>
