<svg width="22" height="22" viewBox="0 0 22 22" fill="none" xmlns="http://www.w3.org/2000/svg">
<path d="M20.7629 19.2372L20.7626 19.2375L20.7679 19.2416L20.769 19.2423C20.8682 19.3421 20.9469 19.4604 21.0008 19.5904C21.0551 19.7215 21.083 19.8619 21.083 20.0037C21.083 20.1456 21.0551 20.286 21.0008 20.4171C20.9465 20.5481 20.867 20.6672 20.7667 20.7675C20.6664 20.8678 20.5473 20.9473 20.4163 21.0016C20.2852 21.0559 20.1448 21.0838 20.0029 21.0838C19.8611 21.0838 19.7206 21.0559 19.5896 21.0016C19.4586 20.9473 19.3395 20.8678 19.2392 20.7675L14.7833 16.3106L14.7542 16.2815L14.7216 16.3066C12.9915 17.6342 10.8211 18.2541 8.65078 18.0404C6.48045 17.8267 4.47267 16.7954 3.03472 15.1558C1.59678 13.5162 0.836342 11.391 0.907677 9.21137C0.979012 7.03172 1.87677 4.9608 3.41885 3.41873C4.96093 1.87665 7.03184 0.97889 9.2115 0.907555C11.3912 0.83622 13.5163 1.59665 15.1559 3.0346C16.7955 4.47255 17.8268 6.48033 18.0405 8.65066C18.2542 10.821 17.6343 12.9913 16.3067 14.7215L16.2817 14.7541L16.3107 14.7831L20.7629 19.2372ZM3.07824 9.49999V9.50004C3.07999 11.2027 3.75714 12.8351 4.96108 14.039C6.16503 15.243 7.79743 15.9201 9.50007 15.9219H9.50012C10.7702 15.9219 12.0118 15.5452 13.0679 14.8396C14.124 14.1339 14.9471 13.131 15.4332 11.9575C15.9192 10.7841 16.0464 9.49287 15.7986 8.24715C15.5508 7.00143 14.9392 5.85716 14.0411 4.95904C13.143 4.06093 11.9987 3.4493 10.753 3.20151C9.50724 2.95372 8.21601 3.0809 7.04257 3.56696C5.86913 4.05301 4.86617 4.87612 4.16052 5.93219C3.45488 6.98826 3.07824 8.22987 3.07824 9.49999Z" fill="#475569" stroke="#475569" stroke-width="0.09375"/>
</svg>
