<svg width="40" height="40" viewBox="0 0 40 40" fill="none" xmlns="http://www.w3.org/2000/svg">
<path d="M29.7629 28.2372L29.7626 28.2375L29.7679 28.2416L29.769 28.2423C29.8682 28.3421 29.9469 28.4604 30.0008 28.5904C30.0551 28.7215 30.083 28.8619 30.083 29.0037C30.083 29.1456 30.0551 29.286 30.0008 29.4171C29.9465 29.5481 29.867 29.6672 29.7667 29.7675C29.6664 29.8678 29.5473 29.9473 29.4163 30.0016C29.2852 30.0559 29.1448 30.0838 29.0029 30.0838C28.8611 30.0838 28.7206 30.0559 28.5896 30.0016C28.4586 29.9473 28.3395 29.8678 28.2392 29.7675L23.7833 25.3106L23.7542 25.2815L23.7216 25.3066C21.9915 26.6342 19.8211 27.2541 17.6508 27.0404C15.4805 26.8267 13.4727 25.7954 12.0347 24.1558C10.5968 22.5162 9.83634 20.391 9.90768 18.2114C9.97901 16.0317 10.8768 13.9608 12.4189 12.4187C13.9609 10.8767 16.0318 9.97889 18.2115 9.90755C20.3912 9.83622 22.5163 10.5967 24.1559 12.0346C25.7955 13.4725 26.8268 15.4803 27.0405 17.6507C27.2542 19.821 26.6343 21.9913 25.3067 23.7215L25.2817 23.7541L25.3107 23.7831L29.7629 28.2372ZM12.0782 18.5V18.5C12.08 20.2027 12.7571 21.8351 13.9611 23.039C15.165 24.243 16.7974 24.9201 18.5001 24.9219H18.5001C19.7702 24.9219 21.0118 24.5452 22.0679 23.8396C23.124 23.1339 23.9471 22.131 24.4332 20.9575C24.9192 19.7841 25.0464 18.4929 24.7986 17.2471C24.5508 16.0014 23.9392 14.8572 23.0411 13.959C22.143 13.0609 20.9987 12.4493 19.753 12.2015C18.5072 11.9537 17.216 12.0809 16.0426 12.567C14.8691 13.053 13.8662 13.8761 13.1605 14.9322C12.4549 15.9883 12.0782 17.2299 12.0782 18.5Z" fill="#475569" stroke="#475569" stroke-width="0.09375"/>
</svg>
