<svg width="20" height="20" viewBox="0 0 20 20" fill="none" xmlns="http://www.w3.org/2000/svg">
<path d="M19.6876 11.875C19.6876 12.1236 19.5888 12.3621 19.413 12.5379C19.2372 12.7137 18.9987 12.8125 18.7501 12.8125H17.8126V13.75C17.8126 13.9986 17.7138 14.2371 17.538 14.4129C17.3622 14.5887 17.1237 14.6875 16.8751 14.6875C16.6265 14.6875 16.388 14.5887 16.2122 14.4129C16.0364 14.2371 15.9376 13.9986 15.9376 13.75V12.8125H15.0001C14.7515 12.8125 14.513 12.7137 14.3372 12.5379C14.1614 12.3621 14.0626 12.1236 14.0626 11.875C14.0626 11.6264 14.1614 11.3879 14.3372 11.2121C14.513 11.0363 14.7515 10.9375 15.0001 10.9375H15.9376V10C15.9376 9.75136 16.0364 9.5129 16.2122 9.33709C16.388 9.16127 16.6265 9.0625 16.8751 9.0625C17.1237 9.0625 17.3622 9.16127 17.538 9.33709C17.7138 9.5129 17.8126 9.75136 17.8126 10V10.9375H18.7501C18.9987 10.9375 19.2372 11.0363 19.413 11.2121C19.5888 11.3879 19.6876 11.6264 19.6876 11.875ZM4.37511 5.9375H5.31261V6.875C5.31261 7.12364 5.41138 7.3621 5.58719 7.53791C5.76301 7.71373 6.00147 7.8125 6.25011 7.8125C6.49875 7.8125 6.7372 7.71373 6.91302 7.53791C7.08883 7.3621 7.18761 7.12364 7.18761 6.875V5.9375H8.12511C8.37375 5.9375 8.6122 5.83873 8.78802 5.66291C8.96383 5.4871 9.06261 5.24864 9.06261 5C9.06261 4.75136 8.96383 4.5129 8.78802 4.33709C8.6122 4.16127 8.37375 4.0625 8.12511 4.0625H7.18761V3.125C7.18761 2.87636 7.08883 2.6379 6.91302 2.46209C6.7372 2.28627 6.49875 2.1875 6.25011 2.1875C6.00147 2.1875 5.76301 2.28627 5.58719 2.46209C5.41138 2.6379 5.31261 2.87636 5.31261 3.125V4.0625H4.37511C4.12647 4.0625 3.88801 4.16127 3.71219 4.33709C3.53638 4.5129 3.43761 4.75136 3.43761 5C3.43761 5.24864 3.53638 5.4871 3.71219 5.66291C3.88801 5.83873 4.12647 5.9375 4.37511 5.9375ZM14.3751 14.6875H14.0626V14.375C14.0626 14.1264 13.9638 13.8879 13.788 13.7121C13.6122 13.5363 13.3737 13.4375 13.1251 13.4375C12.8765 13.4375 12.638 13.5363 12.4622 13.7121C12.2864 13.8879 12.1876 14.1264 12.1876 14.375V14.6875H11.8751C11.6265 14.6875 11.388 14.7863 11.2122 14.9621C11.0364 15.1379 10.9376 15.3764 10.9376 15.625C10.9376 15.8736 11.0364 16.1121 11.2122 16.2879C11.388 16.4637 11.6265 16.5625 11.8751 16.5625H12.1876V16.875C12.1876 17.1236 12.2864 17.3621 12.4622 17.5379C12.638 17.7137 12.8765 17.8125 13.1251 17.8125C13.3737 17.8125 13.6122 17.7137 13.788 17.5379C13.9638 17.3621 14.0626 17.1236 14.0626 16.875V16.5625H14.3751C14.6237 16.5625 14.8622 16.4637 15.038 16.2879C15.2138 16.1121 15.3126 15.8736 15.3126 15.625C15.3126 15.3764 15.2138 15.1379 15.038 14.9621C14.8622 14.7863 14.6237 14.6875 14.3751 14.6875ZM17.3548 6.47109L6.47042 17.3547C6.17741 17.6476 5.78005 17.8122 5.36573 17.8122C4.95141 17.8122 4.55406 17.6476 4.26104 17.3547L2.64464 15.7391C2.49948 15.594 2.38433 15.4217 2.30577 15.2321C2.2272 15.0425 2.18677 14.8392 2.18677 14.634C2.18677 14.4287 2.2272 14.2255 2.30577 14.0359C2.38433 13.8463 2.49948 13.674 2.64464 13.5289L13.529 2.64531C13.822 2.35239 14.2194 2.18783 14.6337 2.18783C15.048 2.18783 15.4454 2.35239 15.7384 2.64531L17.3548 4.26094C17.5 4.40604 17.6151 4.57831 17.6937 4.76793C17.7722 4.95754 17.8127 5.16077 17.8127 5.36602C17.8127 5.57126 17.7722 5.77449 17.6937 5.9641C17.6151 6.15372 17.5 6.32599 17.3548 6.47109ZM12.422 8.75L11.2501 7.57812L4.19151 14.6336L5.36339 15.8055L12.422 8.75ZM15.8056 5.36641L14.6337 4.19453L12.5782 6.25L13.7501 7.42188L15.8056 5.36641Z" fill="#475569"/>
</svg>
