<svg width="19" height="16" viewBox="0 0 19 16" fill="none" xmlns="http://www.w3.org/2000/svg">
<path d="M18.1876 9.875C18.1876 10.1236 18.0888 10.3621 17.913 10.5379C17.7372 10.7137 17.4987 10.8125 17.2501 10.8125H16.3126V11.75C16.3126 11.9986 16.2138 12.2371 16.038 12.4129C15.8622 12.5887 15.6237 12.6875 15.3751 12.6875C15.1265 12.6875 14.888 12.5887 14.7122 12.4129C14.5364 12.2371 14.4376 11.9986 14.4376 11.75V10.8125H13.5001C13.2515 10.8125 13.013 10.7137 12.8372 10.5379C12.6614 10.3621 12.5626 10.1236 12.5626 9.875C12.5626 9.62636 12.6614 9.3879 12.8372 9.21209C13.013 9.03627 13.2515 8.9375 13.5001 8.9375H14.4376V8C14.4376 7.75136 14.5364 7.5129 14.7122 7.33709C14.888 7.16127 15.1265 7.0625 15.3751 7.0625C15.6237 7.0625 15.8622 7.16127 16.038 7.33709C16.2138 7.5129 16.3126 7.75136 16.3126 8V8.9375H17.2501C17.4987 8.9375 17.7372 9.03627 17.913 9.21209C18.0888 9.3879 18.1876 9.62636 18.1876 9.875ZM2.87511 3.9375H3.81261V4.875C3.81261 5.12364 3.91138 5.3621 4.08719 5.53791C4.26301 5.71373 4.50147 5.8125 4.75011 5.8125C4.99875 5.8125 5.2372 5.71373 5.41302 5.53791C5.58883 5.3621 5.68761 5.12364 5.68761 4.875V3.9375H6.62511C6.87375 3.9375 7.1122 3.83873 7.28802 3.66291C7.46383 3.4871 7.56261 3.24864 7.56261 3C7.56261 2.75136 7.46383 2.5129 7.28802 2.33709C7.1122 2.16127 6.87375 2.0625 6.62511 2.0625H5.68761V1.125C5.68761 0.87636 5.58883 0.637903 5.41302 0.462087C5.2372 0.286272 4.99875 0.1875 4.75011 0.1875C4.50147 0.1875 4.26301 0.286272 4.08719 0.462087C3.91138 0.637903 3.81261 0.87636 3.81261 1.125V2.0625H2.87511C2.62647 2.0625 2.38801 2.16127 2.21219 2.33709C2.03638 2.5129 1.93761 2.75136 1.93761 3C1.93761 3.24864 2.03638 3.4871 2.21219 3.66291C2.38801 3.83873 2.62647 3.9375 2.87511 3.9375ZM12.8751 12.6875H12.5626V12.375C12.5626 12.1264 12.4638 11.8879 12.288 11.7121C12.1122 11.5363 11.8737 11.4375 11.6251 11.4375C11.3765 11.4375 11.138 11.5363 10.9622 11.7121C10.7864 11.8879 10.6876 12.1264 10.6876 12.375V12.6875H10.3751C10.1265 12.6875 9.88801 12.7863 9.71219 12.9621C9.53638 13.1379 9.43761 13.3764 9.43761 13.625C9.43761 13.8736 9.53638 14.1121 9.71219 14.2879C9.88801 14.4637 10.1265 14.5625 10.3751 14.5625H10.6876V14.875C10.6876 15.1236 10.7864 15.3621 10.9622 15.5379C11.138 15.7137 11.3765 15.8125 11.6251 15.8125C11.8737 15.8125 12.1122 15.7137 12.288 15.5379C12.4638 15.3621 12.5626 15.1236 12.5626 14.875V14.5625H12.8751C13.1237 14.5625 13.3622 14.4637 13.538 14.2879C13.7138 14.1121 13.8126 13.8736 13.8126 13.625C13.8126 13.3764 13.7138 13.1379 13.538 12.9621C13.3622 12.7863 13.1237 12.6875 12.8751 12.6875ZM15.8548 4.47109L4.97042 15.3547C4.67741 15.6476 4.28005 15.8122 3.86573 15.8122C3.45141 15.8122 3.05406 15.6476 2.76104 15.3547L1.14464 13.7391C0.999478 13.594 0.884329 13.4217 0.805766 13.2321C0.727204 13.0425 0.686768 12.8392 0.686768 12.634C0.686768 12.4287 0.727204 12.2255 0.805766 12.0359C0.884329 11.8463 0.999478 11.674 1.14464 11.5289L12.029 0.645313C12.322 0.352389 12.7194 0.187834 13.1337 0.187834C13.548 0.187834 13.9454 0.352389 14.2384 0.645313L15.8548 2.26094C16 2.40604 16.1151 2.57831 16.1937 2.76793C16.2722 2.95754 16.3127 3.16077 16.3127 3.36602C16.3127 3.57126 16.2722 3.77449 16.1937 3.9641C16.1151 4.15372 16 4.32599 15.8548 4.47109ZM10.922 6.75L9.75011 5.57812L2.69151 12.6336L3.86339 13.8055L10.922 6.75ZM14.3056 3.36641L13.1337 2.19453L11.0782 4.25L12.2501 5.42188L14.3056 3.36641Z" fill="white"/>
</svg>
