<svg width="21" height="20" viewBox="0 0 21 20" fill="none" xmlns="http://www.w3.org/2000/svg">
<path d="M20.1876 11.875C20.1876 12.1236 20.0888 12.3621 19.913 12.5379C19.7372 12.7137 19.4987 12.8125 19.2501 12.8125H18.3126V13.75C18.3126 13.9986 18.2138 14.2371 18.038 14.4129C17.8622 14.5887 17.6237 14.6875 17.3751 14.6875C17.1265 14.6875 16.888 14.5887 16.7122 14.4129C16.5364 14.2371 16.4376 13.9986 16.4376 13.75V12.8125H15.5001C15.2515 12.8125 15.013 12.7137 14.8372 12.5379C14.6614 12.3621 14.5626 12.1236 14.5626 11.875C14.5626 11.6264 14.6614 11.3879 14.8372 11.2121C15.013 11.0363 15.2515 10.9375 15.5001 10.9375H16.4376V10C16.4376 9.75136 16.5364 9.5129 16.7122 9.33709C16.888 9.16127 17.1265 9.0625 17.3751 9.0625C17.6237 9.0625 17.8622 9.16127 18.038 9.33709C18.2138 9.5129 18.3126 9.75136 18.3126 10V10.9375H19.2501C19.4987 10.9375 19.7372 11.0363 19.913 11.2121C20.0888 11.3879 20.1876 11.6264 20.1876 11.875ZM4.87511 5.9375H5.81261V6.875C5.81261 7.12364 5.91138 7.3621 6.08719 7.53791C6.26301 7.71373 6.50147 7.8125 6.75011 7.8125C6.99875 7.8125 7.2372 7.71373 7.41302 7.53791C7.58883 7.3621 7.68761 7.12364 7.68761 6.875V5.9375H8.62511C8.87375 5.9375 9.1122 5.83873 9.28802 5.66291C9.46383 5.4871 9.56261 5.24864 9.56261 5C9.56261 4.75136 9.46383 4.5129 9.28802 4.33709C9.1122 4.16127 8.87375 4.0625 8.62511 4.0625H7.68761V3.125C7.68761 2.87636 7.58883 2.6379 7.41302 2.46209C7.2372 2.28627 6.99875 2.1875 6.75011 2.1875C6.50147 2.1875 6.26301 2.28627 6.08719 2.46209C5.91138 2.6379 5.81261 2.87636 5.81261 3.125V4.0625H4.87511C4.62647 4.0625 4.38801 4.16127 4.21219 4.33709C4.03638 4.5129 3.93761 4.75136 3.93761 5C3.93761 5.24864 4.03638 5.4871 4.21219 5.66291C4.38801 5.83873 4.62647 5.9375 4.87511 5.9375ZM14.8751 14.6875H14.5626V14.375C14.5626 14.1264 14.4638 13.8879 14.288 13.7121C14.1122 13.5363 13.8737 13.4375 13.6251 13.4375C13.3765 13.4375 13.138 13.5363 12.9622 13.7121C12.7864 13.8879 12.6876 14.1264 12.6876 14.375V14.6875H12.3751C12.1265 14.6875 11.888 14.7863 11.7122 14.9621C11.5364 15.1379 11.4376 15.3764 11.4376 15.625C11.4376 15.8736 11.5364 16.1121 11.7122 16.2879C11.888 16.4637 12.1265 16.5625 12.3751 16.5625H12.6876V16.875C12.6876 17.1236 12.7864 17.3621 12.9622 17.5379C13.138 17.7137 13.3765 17.8125 13.6251 17.8125C13.8737 17.8125 14.1122 17.7137 14.288 17.5379C14.4638 17.3621 14.5626 17.1236 14.5626 16.875V16.5625H14.8751C15.1237 16.5625 15.3622 16.4637 15.538 16.2879C15.7138 16.1121 15.8126 15.8736 15.8126 15.625C15.8126 15.3764 15.7138 15.1379 15.538 14.9621C15.3622 14.7863 15.1237 14.6875 14.8751 14.6875ZM17.8548 6.47109L6.97042 17.3547C6.67741 17.6476 6.28005 17.8122 5.86573 17.8122C5.45141 17.8122 5.05406 17.6476 4.76104 17.3547L3.14464 15.7391C2.99948 15.594 2.88433 15.4217 2.80577 15.2321C2.7272 15.0425 2.68677 14.8392 2.68677 14.634C2.68677 14.4287 2.7272 14.2255 2.80577 14.0359C2.88433 13.8463 2.99948 13.674 3.14464 13.5289L14.029 2.64531C14.322 2.35239 14.7194 2.18783 15.1337 2.18783C15.548 2.18783 15.9454 2.35239 16.2384 2.64531L17.8548 4.26094C18 4.40604 18.1151 4.57831 18.1937 4.76793C18.2722 4.95754 18.3127 5.16077 18.3127 5.36602C18.3127 5.57126 18.2722 5.77449 18.1937 5.9641C18.1151 6.15372 18 6.32599 17.8548 6.47109ZM12.922 8.75L11.7501 7.57812L4.69151 14.6336L5.86339 15.8055L12.922 8.75ZM16.3056 5.36641L15.1337 4.19453L13.0782 6.25L14.2501 7.42188L16.3056 5.36641Z" fill="white"/>
</svg>
