<svg width="20" height="20" viewBox="0 0 20 20" fill="none" xmlns="http://www.w3.org/2000/svg">
<path d="M15.3507 11.8367C15.5268 12.0128 15.6258 12.2517 15.6258 12.5008C15.6258 12.7499 15.5268 12.9887 15.3507 13.1648C15.1746 13.341 14.9357 13.4399 14.6867 13.4399C14.4376 13.4399 14.1987 13.341 14.0226 13.1648L13.1249 12.2656V16.25C13.1249 16.4986 13.0262 16.7371 12.8503 16.9129C12.6745 17.0887 12.4361 17.1875 12.1874 17.1875C11.9388 17.1875 11.7003 17.0887 11.5245 16.9129C11.3487 16.7371 11.2499 16.4986 11.2499 16.25V12.2656L10.3507 13.1656C10.1746 13.3417 9.93572 13.4407 9.68665 13.4407C9.43758 13.4407 9.19871 13.3417 9.02259 13.1656C8.84647 12.9895 8.74753 12.7506 8.74753 12.5016C8.74753 12.2525 8.84647 12.0136 9.02259 11.8375L11.5226 9.3375C11.6097 9.2501 11.7132 9.18075 11.8271 9.13344C11.9411 9.08612 12.0633 9.06176 12.1867 9.06176C12.31 9.06176 12.4322 9.08612 12.5462 9.13344C12.6601 9.18075 12.7636 9.2501 12.8507 9.3375L15.3507 11.8367ZM12.4999 2.8125C11.2024 2.81312 9.92917 3.16468 8.81514 3.82994C7.70111 4.49519 6.78775 5.44937 6.17181 6.59141C5.45448 6.51627 4.72936 6.588 4.04065 6.8022C3.35194 7.01641 2.71406 7.36861 2.16588 7.83734C1.61771 8.30608 1.17072 8.88152 0.852161 9.52862C0.533602 10.1757 0.350145 10.8809 0.31297 11.6012C0.275795 12.3215 0.38568 13.0418 0.635929 13.7183C0.886179 14.3947 1.27155 15.0131 1.76856 15.5358C2.26557 16.0585 2.8638 16.4745 3.5268 16.7584C4.1898 17.0424 4.90368 17.1884 5.62493 17.1875H7.81243C8.06107 17.1875 8.29953 17.0887 8.47535 16.9129C8.65116 16.7371 8.74993 16.4986 8.74993 16.25C8.74993 16.0014 8.65116 15.7629 8.47535 15.5871C8.29953 15.4113 8.06107 15.3125 7.81243 15.3125H5.62493C4.72916 15.307 3.87092 14.9521 3.23294 14.3232C2.59497 13.6944 2.22766 12.8414 2.20923 11.9458C2.19079 11.0502 2.5227 10.1828 3.13426 9.52824C3.74583 8.8737 4.58874 8.48375 5.48353 8.44141C5.36964 8.95311 5.31227 9.47577 5.31243 10C5.31243 10.2486 5.41121 10.4871 5.58702 10.6629C5.76284 10.8387 6.00129 10.9375 6.24993 10.9375C6.49857 10.9375 6.73703 10.8387 6.91285 10.6629C7.08866 10.4871 7.18743 10.2486 7.18743 10C7.18808 9.23149 7.35545 8.47228 7.678 7.77474C8.00056 7.0772 8.47061 6.45794 9.05572 5.9597C9.64083 5.46146 10.3271 5.0961 11.0671 4.88883C11.8071 4.68156 12.5833 4.63731 13.3421 4.75914C14.1009 4.88097 14.8242 5.16597 15.4622 5.59449C16.1001 6.02301 16.6375 6.58483 17.0372 7.2412C17.437 7.89756 17.6895 8.63284 17.7775 9.39629C17.8655 10.1597 17.7868 10.9332 17.5468 11.6633C17.5083 11.7802 17.4932 11.9036 17.5023 12.0264C17.5115 12.1492 17.5448 12.269 17.6002 12.379C17.6557 12.4889 17.7323 12.5869 17.8256 12.6672C17.9189 12.7476 18.0271 12.8087 18.1441 12.8473C18.261 12.8858 18.3844 12.9009 18.5072 12.8917C18.63 12.8826 18.7498 12.8493 18.8598 12.7938C18.9697 12.7384 19.0676 12.6618 19.148 12.5685C19.2283 12.4752 19.2895 12.367 19.3281 12.25C19.6829 11.1702 19.7768 10.0216 19.6019 8.89849C19.4271 7.77538 18.9886 6.70969 18.3223 5.7888C17.6561 4.86791 16.781 4.11805 15.7689 3.60069C14.7569 3.08334 13.6366 2.81323 12.4999 2.8125Z" fill="#475569"/>
</svg>
